# xmcd
#
# Track frame offsets: 
#        150
#        860
#        12615
#        22282
#        31759
#        43068
#        55261
#        62751
#        80556
#        92438
#        102430
#        112277
#        119581
#        129979
#        132043
#        142274
#        152139
#        164208
#        174692
#        187579
#        197995
#        201656
#        212937
#        223441
#        232075
#        241580
#        252845
#
# Disc length: 3428 seconds
#
# Revision: 1
# Processed by: cddbd v1.5.2PL0 Copyright (c) Steve Scherf et al.
# Submitted via: ExactAudioCopy v1.1
#
DISCID=9a0d621b
DTITLE=Harry Nilsson - Aerial Pandemonium Ballet
DYEAR=1971
DGENRE=Pop
TTITLE0=Introduction
TTITLE1=1941 (1971 remix)
TTITLE2=Daddy's Song (1971 remix)
TTITLE3=Mr. Richland's Favorite Song (1971 remix)
TTITLE4=Good Old Desk (1971 remix)
TTITLE5=Everybody's Talkin' (1971 remix)
TTITLE6=Bath (1971 remix)
TTITLE7=River Deep - Mountain High (1971 remix)
TTITLE8=Sleep Late, My Lady Friend (1971 remix)
TTITLE9=Don't Leave Me (1971 remix)
TTITLE10=Without Her (1971 remix)
TTITLE11=Together (1971 remix)
TTITLE12=One (1971 remix)
TTITLE13=Closing
TTITLE14=You Can't Do That (1971 remix)
TTITLE15=It's Been So Long (Italian version)
TTITLE16=Sleep Late, My Lady Friend (Italian version)
TTITLE17=Without Her (Italian version)
TTITLE18=Cuddly Toy (Italian version)
TTITLE19=You Can't Do That (Italian version)
TTITLE20=Introduction (BBC 11-05-68 Saturday Club)
TTITLE21=1941 (BBC 11-05-68 Saturday Club)
TTITLE22=Mr. Richland's Favorite Song (BBC 11-05-68 Saturday Club)
TTITLE23=Interview (BBC 11-05-68 Saturday Club)
TTITLE24=Together (BBC 11-05-68 Saturday Club)
TTITLE25=Good Old Desk (BBC 11-05-68 Saturday Club)
TTITLE26=Aerial Pandemonium Ballet (radio spot)
EXTD=
EXTT0=
EXTT1=
EXTT2=
EXTT3=
EXTT4=
EXTT5=
EXTT6=
EXTT7=
EXTT8=
EXTT9=
EXTT10=
EXTT11=
EXTT12=
EXTT13=
EXTT14=
EXTT15=
EXTT16=
EXTT17=
EXTT18=
EXTT19=
EXTT20=
EXTT21=
EXTT22=
EXTT23=
EXTT24=
EXTT25=
EXTT26=
PLAYORDER=
